<svg width="26" height="26" viewBox="0 0 26 26" fill="none" xmlns="http://www.w3.org/2000/svg">
<path d="M11.18 15.34L8.3525 12.5125C8.11417 12.2742 7.81647 12.1606 7.4594 12.1719C7.10147 12.1823 6.80333 12.3067 6.565 12.545C6.32667 12.7833 6.2075 13.0867 6.2075 13.455C6.2075 13.8233 6.32667 14.1267 6.565 14.365L10.27 18.07C10.5083 18.3083 10.8117 18.4275 11.18 18.4275C11.5483 18.4275 11.8517 18.3083 12.09 18.07L19.4675 10.6925C19.7058 10.4542 19.8198 10.156 19.8094 9.7981C19.7981 9.44103 19.6733 9.14333 19.435 8.905C19.1967 8.66667 18.8933 8.5475 18.525 8.5475C18.1567 8.5475 17.8533 8.66667 17.615 8.905L11.18 15.34ZM13 26C11.2017 26 9.51167 25.6585 7.93 24.9756C6.34833 24.2935 4.9725 23.3675 3.8025 22.1975C2.6325 21.0275 1.70647 19.6517 1.0244 18.07C0.341467 16.4883 0 14.7983 0 13C0 11.2017 0.341467 9.51167 1.0244 7.93C1.70647 6.34833 2.6325 4.9725 3.8025 3.8025C4.9725 2.6325 6.34833 1.70603 7.93 1.0231C9.51167 0.341033 11.2017 0 13 0C14.7983 0 16.4883 0.341033 18.07 1.0231C19.6517 1.70603 21.0275 2.6325 22.1975 3.8025C23.3675 4.9725 24.2935 6.34833 24.9756 7.93C25.6585 9.51167 26 11.2017 26 13C26 14.7983 25.6585 16.4883 24.9756 18.07C24.2935 19.6517 23.3675 21.0275 22.1975 22.1975C21.0275 23.3675 19.6517 24.2935 18.07 24.9756C16.4883 25.6585 14.7983 26 13 26ZM13 23.4C15.8817 23.4 18.3356 22.3873 20.3619 20.3619C22.3873 18.3356 23.4 15.8817 23.4 13C23.4 10.1183 22.3873 7.66437 20.3619 5.6381C18.3356 3.6127 15.8817 2.6 13 2.6C10.1183 2.6 7.6648 3.6127 5.6394 5.6381C3.61313 7.66437 2.6 10.1183 2.6 13C2.6 15.8817 3.61313 18.3356 5.6394 20.3619C7.6648 22.3873 10.1183 23.4 13 23.4Z" fill="#49A952"/>
</svg>
