<svg width="23" height="28" viewBox="0 0 23 28" fill="none" xmlns="http://www.w3.org/2000/svg">
<path d="M9.2 0C8.59855 0 7.98215 0.214667 7.5463 0.656834C7.1116 1.09667 6.9 1.722 6.9 2.33333V3.5H0V5.83333H1.15V24.5C1.15 26.4192 2.70825 28 4.6 28H18.4C20.2917 28 21.85 26.4192 21.85 24.5V5.83333H23V3.5H16.1V2.33333C16.1 1.72317 15.8884 1.09783 15.4525 0.655666C15.019 0.214666 14.4015 0 13.8 0H9.2ZM9.2 2.33333H13.8V3.5H9.2V2.33333ZM3.45 5.83333H19.55V24.5C19.55 25.1475 19.0382 25.6667 18.4 25.6667H4.6C3.96175 25.6667 3.45 25.1475 3.45 24.5V5.83333ZM5.75 9.33333V22.1667H8.05V9.33333H5.75ZM10.35 9.33333V22.1667H12.65V9.33333H10.35ZM14.95 9.33333V22.1667H17.25V9.33333H14.95Z" fill="#D66060"/>
</svg>
