<svg width="32" height="32" viewBox="0 0 32 32" fill="none" xmlns="http://www.w3.org/2000/svg">
<path d="M14.1334 18.4L11.2334 15.5C10.9889 15.2556 10.6889 15.1334 10.3334 15.1334C9.9778 15.1334 9.66669 15.2667 9.40002 15.5334C9.15558 15.7778 9.03335 16.0889 9.03335 16.4667C9.03335 16.8445 9.15558 17.1556 9.40002 17.4L13.2 21.2C13.4445 21.4445 13.7556 21.5667 14.1334 21.5667C14.5111 21.5667 14.8222 21.4445 15.0667 21.2L22.6334 13.6334C22.8778 13.3889 23 13.0889 23 12.7334C23 12.3778 22.8667 12.0667 22.6 11.8C22.3556 11.5556 22.0445 11.4334 21.6667 11.4334C21.2889 11.4334 20.9778 11.5556 20.7334 11.8L14.1334 18.4ZM16 29.3334C14.1556 29.3334 12.4222 28.9831 10.8 28.2827C9.1778 27.5831 7.76669 26.6334 6.56669 25.4334C5.36669 24.2334 4.41691 22.8222 3.71735 21.2C3.01691 19.5778 2.66669 17.8445 2.66669 16C2.66669 14.1556 3.01691 12.4222 3.71735 10.8C4.41691 9.1778 5.36669 7.76669 6.56669 6.56669C7.76669 5.36669 9.1778 4.41646 10.8 3.71602C12.4222 3.01646 14.1556 2.66669 16 2.66669C17.8445 2.66669 19.5778 3.01646 21.2 3.71602C22.8222 4.41646 24.2334 5.36669 25.4334 6.56669C26.6334 7.76669 27.5831 9.1778 28.2827 10.8C28.9831 12.4222 29.3334 14.1556 29.3334 16C29.3334 17.8445 28.9831 19.5778 28.2827 21.2C27.5831 22.8222 26.6334 24.2334 25.4334 25.4334C24.2334 26.6334 22.8222 27.5831 21.2 28.2827C19.5778 28.9831 17.8445 29.3334 16 29.3334Z" fill="#49A952"/>
</svg>
